# xmcd CD database file
#
# Track frame offsets:
#	150
#	24173
#	42580
#	64440
#	87346
#	110640
#	131170
#	152181
#	166317
#	189122
#
# Disc length: 2785 seconds
#
# Revision: 0
# Processed by: cddbd v1.5.2PL0 Copyright (c) Steve Scherf et al.
# Submitted via: CDex 1.51
#
DISCID=850adf0a
DTITLE=El Gran Combo De Puerto Rico - !Aqui Estamos Y De Verdad!
DYEAR=2004
DGENRE=Salsa
TTITLE0=Mi Gorda Bonita
TTITLE1=El Matrimonio
TTITLE2=Amor Perfecto
TTITLE3=Me Dejo En El Aire
TTITLE4=Pa' Arriba No Va
TTITLE5=Para Querer Un Te Quiero
TTITLE6=Esa Eres Tu
TTITLE7=El Amor Que Te Di
TTITLE8=Por Siempre
TTITLE9=Siete Vidas
EXTD=YEAR: 2004
EXTT0=
EXTT1=
EXTT2=
EXTT3=
EXTT4=
EXTT5=
EXTT6=
EXTT7=
EXTT8=
EXTT9=
PLAYORDER=
